<svg width="22" height="23" viewBox="0 0 22 23" fill="none" xmlns="http://www.w3.org/2000/svg">
<g id="vuesax/linear/note">
<g id="note">
<path id="Vector" d="M18.3333 8.08586V17.0234C18.3333 19.7734 16.6925 20.69 14.6667 20.69H7.33332C5.30749 20.69 3.66666 19.7734 3.66666 17.0234V8.08586C3.66666 5.10669 5.30749 4.41919 7.33332 4.41919C7.33332 4.98752 7.56247 5.50085 7.9383 5.87669C8.31413 6.25252 8.82749 6.48169 9.39582 6.48169H12.6042C13.7408 6.48169 14.6667 5.55586 14.6667 4.41919C16.6925 4.41919 18.3333 5.10669 18.3333 8.08586Z" stroke="white" stroke-width="1.375" stroke-linecap="round" stroke-linejoin="round"/>
<path id="Vector_2" d="M14.6667 4.41919C14.6667 5.55586 13.7408 6.48169 12.6042 6.48169H9.39584C8.82751 6.48169 8.31415 6.25252 7.93832 5.87669C7.56249 5.50085 7.33334 4.98752 7.33334 4.41919C7.33334 3.28252 8.25918 2.35669 9.39584 2.35669H12.6042C13.1725 2.35669 13.6859 2.58586 14.0617 2.96169C14.4375 3.33753 14.6667 3.85086 14.6667 4.41919Z" stroke="white" stroke-width="1.375" stroke-linecap="round" stroke-linejoin="round"/>
<path id="Vector_3" d="M7.33334 12.4402H11" stroke="white" stroke-width="1.375" stroke-linecap="round" stroke-linejoin="round"/>
<path id="Vector_4" d="M7.33334 16.1067H14.6667" stroke="white" stroke-width="1.375" stroke-linecap="round" stroke-linejoin="round"/>
</g>
</g>
</svg>
