<svg width="22" height="23" viewBox="0 0 22 23" fill="none" xmlns="http://www.w3.org/2000/svg">
<g id="vuesax/outline/keyboard-open">
<g id="keyboard-open">
<path id="Vector" d="M15.3448 18.4811H6.66396C5.93979 18.4811 5.41729 18.4536 4.96812 18.3894C1.78729 18.0411 1.15479 16.1344 1.15479 12.9719V7.17861C1.15479 4.01611 1.77813 2.10941 4.98646 1.76108C5.42646 1.69691 5.94896 1.66943 6.66396 1.66943H15.3448C16.0598 1.66943 16.5823 1.69691 17.0406 1.76108C20.2306 2.10941 20.854 4.01611 20.854 7.17861V12.9719C20.854 16.1344 20.2306 18.0411 17.0223 18.3894C16.5915 18.4536 16.069 18.4811 15.3448 18.4811ZM6.65479 3.04443C6.00395 3.04443 5.53645 3.07196 5.15145 3.12696C3.17145 3.34696 2.52062 3.96112 2.52062 7.18779V12.9811C2.52062 16.1986 3.17146 16.8219 5.13313 17.0328C5.53646 17.0878 6.00396 17.1152 6.66396 17.1152H15.3448C16.0048 17.1152 16.4631 17.0878 16.8481 17.0328C18.8281 16.8128 19.479 16.1986 19.479 12.9719V7.17861C19.479 3.96111 18.8281 3.33779 16.8665 3.12696C16.454 3.07196 15.9956 3.04443 15.3356 3.04443H6.65479Z" fill="white"/>
<path id="Vector_2" d="M15.8217 8.83789H12.4484C12.0726 8.83789 11.7609 8.52622 11.7609 8.15039C11.7609 7.77456 12.0726 7.46289 12.4484 7.46289H15.8217C16.1976 7.46289 16.5092 7.77456 16.5092 8.15039C16.5092 8.52622 16.2067 8.83789 15.8217 8.83789Z" fill="white"/>
<path id="Vector_3" d="M9.16667 9.06673C8.6625 9.06673 8.25 8.65423 8.25 8.15007C8.25 7.6459 8.65333 7.2334 9.16667 7.2334C9.67083 7.2334 10.0833 7.6459 10.0833 8.15007C10.0833 8.65423 9.68 9.06673 9.16667 9.06673Z" fill="white"/>
<path id="Vector_4" d="M6.27925 9.06673C5.77508 9.06673 5.36258 8.65423 5.36258 8.15007C5.36258 7.6459 5.76591 7.2334 6.27925 7.2334H6.28841C6.79257 7.2334 7.20507 7.6459 7.20507 8.15007C7.20507 8.65423 6.78341 9.06673 6.27925 9.06673Z" fill="white"/>
<path id="Vector_5" d="M15.8219 14.145H6.18769C5.81186 14.145 5.49103 13.8334 5.49103 13.4575C5.49103 13.0817 5.79352 12.77 6.16935 12.77H15.8219C16.1977 12.77 16.5094 13.0817 16.5094 13.4575C16.5094 13.8334 16.2069 14.145 15.8219 14.145Z" fill="white"/>
<path id="Vector_6" d="M15.5833 21.3774H6.41666C6.04082 21.3774 5.72916 21.0658 5.72916 20.6899C5.72916 20.3141 6.04082 20.0024 6.41666 20.0024H15.5833C15.9592 20.0024 16.2708 20.3141 16.2708 20.6899C16.2708 21.0658 15.9592 21.3774 15.5833 21.3774Z" fill="white"/>
</g>
</g>
</svg>
