<svg width="22" height="23" viewBox="0 0 22 23" fill="none" xmlns="http://www.w3.org/2000/svg">
<g id="vuesax/outline/home-2">
<g id="home-2">
<path id="Vector" d="M16.3075 21.3776H5.69251C3.18084 21.3776 1.14584 19.3335 1.14584 16.8218V10.0293C1.14584 8.78262 1.91584 7.21512 2.90584 6.44512L7.84668 2.59512C9.33168 1.44012 11.7058 1.38512 13.2458 2.46679L18.9108 6.43595C20.0017 7.19679 20.8542 8.82845 20.8542 10.1576V16.831C20.8542 19.3335 18.8192 21.3776 16.3075 21.3776ZM8.69001 3.67679L3.74918 7.52679C3.09834 8.04012 2.52084 9.20429 2.52084 10.0293V16.8218C2.52084 18.5726 3.94168 20.0026 5.69251 20.0026H16.3075C18.0583 20.0026 19.4792 18.5818 19.4792 16.831V10.1576C19.4792 9.27762 18.8467 8.05845 18.1225 7.56345L12.4575 3.59429C11.4125 2.86095 9.68918 2.89762 8.69001 3.67679Z" fill="white"/>
<path id="Vector_2" d="M11 17.7109C10.6242 17.7109 10.3125 17.3993 10.3125 17.0234V14.2734C10.3125 13.8976 10.6242 13.5859 11 13.5859C11.3758 13.5859 11.6875 13.8976 11.6875 14.2734V17.0234C11.6875 17.3993 11.3758 17.7109 11 17.7109Z" fill="white"/>
</g>
</g>
</svg>
