<svg width="22" height="23" viewBox="0 0 22 23" fill="none" xmlns="http://www.w3.org/2000/svg">
<g id="vuesax/outline/cup">
<g id="cup">
<path id="Vector" d="M11.1375 18.261C10.7616 18.261 10.45 17.9493 10.45 17.5735V15.6485C10.45 15.2726 10.7616 14.961 11.1375 14.961C11.5133 14.961 11.825 15.2726 11.825 15.6485V17.5735C11.825 17.9493 11.5133 18.261 11.1375 18.261Z" fill="white"/>
<path id="Vector_2" d="M16.4083 21.3776H5.86664V19.7734C5.86664 18.3801 6.99414 17.2526 8.38747 17.2526H13.8875C15.2808 17.2526 16.4083 18.3801 16.4083 19.7734V21.3776ZM7.24164 20.0026H15.0333V19.7734C15.0333 19.1409 14.52 18.6276 13.8875 18.6276H8.38747C7.75497 18.6276 7.24164 19.1409 7.24164 19.7734V20.0026Z" fill="white"/>
<path id="Vector_3" d="M16.6375 21.3776H5.63748C5.26165 21.3776 4.94998 21.0659 4.94998 20.6901C4.94998 20.3143 5.26165 20.0026 5.63748 20.0026H16.6375C17.0133 20.0026 17.325 20.3143 17.325 20.6901C17.325 21.0659 17.0133 21.3776 16.6375 21.3776Z" fill="white"/>
<path id="Vector_4" d="M16.8942 11.9268C16.7017 11.9268 16.5092 11.8443 16.3717 11.6884C16.1975 11.4868 16.1517 11.2026 16.2617 10.9643C16.5733 10.2493 16.7292 9.48845 16.7292 8.69095V5.94095C16.7292 5.62011 16.6742 5.30845 16.5642 4.97845C16.555 4.95095 16.5458 4.91428 16.5367 4.87761C16.5092 4.74011 16.5 4.60261 16.5 4.47428C16.5 4.09845 16.8117 3.78678 17.1875 3.78678H17.7375C19.3783 3.78678 20.7167 5.16178 20.7167 6.85761C20.7167 8.26011 20.1392 9.64428 19.14 10.6434C19.1217 10.6618 19.0667 10.7076 19.0575 10.7168C18.5167 11.1659 17.9025 11.6701 17.0775 11.8993C17.0133 11.9176 16.9583 11.9268 16.8942 11.9268ZM18.04 5.18928C18.0858 5.43678 18.1042 5.69345 18.1042 5.94095V8.69095C18.1042 9.06678 18.0767 9.42428 18.0217 9.79095C18.0767 9.74511 18.1225 9.70845 18.1775 9.66262C18.9108 8.92928 19.3417 7.90261 19.3417 6.85761C19.3417 6.03261 18.7825 5.33595 18.04 5.18928Z" fill="white"/>
<path id="Vector_5" d="M5.11499 11.8901C5.04166 11.8901 4.97749 11.881 4.90416 11.8535C4.15249 11.6151 3.44666 11.1751 2.85999 10.5885C1.80583 9.42429 1.28333 8.15012 1.28333 6.80262C1.28333 5.13429 2.59416 3.82346 4.26249 3.82346H4.85833C5.08749 3.82346 5.30749 3.94262 5.43582 4.13512C5.56416 4.32762 5.58249 4.57512 5.49082 4.78596C5.34416 5.11596 5.27082 5.49179 5.27082 5.88596V8.63596C5.27082 9.42429 5.42666 10.1943 5.74749 10.9276C5.85749 11.1751 5.80249 11.4593 5.62832 11.661C5.49082 11.8076 5.30749 11.8901 5.11499 11.8901ZM3.94166 5.22596C3.19916 5.37262 2.65833 6.01429 2.65833 6.80262C2.65833 7.80179 3.06166 8.76429 3.85916 9.64429C3.89583 9.69012 3.94166 9.72679 3.98749 9.76346C3.92332 9.38762 3.89582 9.01179 3.89582 8.63596V5.88596C3.89582 5.66596 3.91416 5.44596 3.94166 5.22596Z" fill="white"/>
<path id="Vector_6" d="M11 15.8776C7.08581 15.8776 3.89581 12.6876 3.89581 8.77345V6.02345C3.89581 3.62178 5.84831 1.66928 8.24998 1.66928H13.75C16.1516 1.66928 18.1041 3.62178 18.1041 6.02345V8.77345C18.1041 12.6876 14.9141 15.8776 11 15.8776ZM8.24998 3.04428C6.60915 3.04428 5.27081 4.38261 5.27081 6.02345V8.77345C5.27081 11.9359 7.83748 14.5026 11 14.5026C14.1625 14.5026 16.7291 11.9359 16.7291 8.77345V6.02345C16.7291 4.38261 15.3908 3.04428 13.75 3.04428H8.24998Z" fill="white"/>
</g>
</g>
</svg>
