<svg width="32" height="32" viewBox="0 0 32 32" fill="none" xmlns="http://www.w3.org/2000/svg">
<g id="vuesax/bold/people">
<g id="people">
<path id="Vector" d="M23.3731 10.3601C23.2798 10.3467 23.1865 10.3467 23.0931 10.3601C21.0265 10.2934 19.3865 8.60008 19.3865 6.52008C19.3865 4.40008 21.1065 2.66675 23.2398 2.66675C25.3598 2.66675 27.0931 4.38675 27.0931 6.52008C27.0798 8.60008 25.4398 10.2934 23.3731 10.3601Z" fill="white"/>
<path id="Vector_2" d="M27.7199 19.6C26.2266 20.6 24.1332 20.9734 22.1999 20.72C22.7066 19.6267 22.9732 18.4134 22.9866 17.1334C22.9866 15.8001 22.6932 14.5334 22.1332 13.4267C24.1066 13.16 26.1999 13.5334 27.7066 14.5334C29.8132 15.92 29.8132 18.2 27.7199 19.6Z" fill="white"/>
<path id="Vector_3" d="M8.58631 10.3601C8.67964 10.3467 8.77297 10.3467 8.86631 10.3601C10.933 10.2934 12.573 8.60008 12.573 6.52008C12.573 4.38675 10.853 2.66675 8.71964 2.66675C6.59964 2.66675 4.87964 4.38675 4.87964 6.52008C4.87964 8.60008 6.51964 10.2934 8.58631 10.3601Z" fill="white"/>
<path id="Vector_4" d="M8.73325 17.1333C8.73325 18.4266 9.01325 19.6533 9.51991 20.7599C7.63991 20.9599 5.67991 20.5599 4.23991 19.6133C2.13325 18.2133 2.13325 15.9333 4.23991 14.5333C5.66658 13.5733 7.67991 13.1866 9.57325 13.3999C9.02658 14.5199 8.73325 15.7866 8.73325 17.1333Z" fill="white"/>
<path id="Vector_5" d="M16.1598 21.16C16.0532 21.1467 15.9332 21.1467 15.8132 21.16C13.3598 21.08 11.3998 19.0667 11.3998 16.5867C11.4132 14.0533 13.4532 12 15.9998 12C18.5332 12 20.5865 14.0533 20.5865 16.5867C20.5732 19.0667 18.6265 21.08 16.1598 21.16Z" fill="white"/>
<path id="Vector_6" d="M11.8265 23.92C9.81319 25.2667 9.81319 27.48 11.8265 28.8134C14.1199 30.3467 17.8799 30.3467 20.1732 28.8134C22.1865 27.4667 22.1865 25.2534 20.1732 23.92C17.8932 22.3867 14.1332 22.3867 11.8265 23.92Z" fill="white"/>
</g>
</g>
</svg>
