<svg width="33" height="32" viewBox="0 0 33 32" fill="none" xmlns="http://www.w3.org/2000/svg">
<g id="vuesax/bold/cup">
<g id="cup">
<path id="Vector" d="M15.3334 24.3332H12.3334C10.8667 24.3332 9.6667 25.5332 9.6667 26.9999V27.3332H8.33337C7.7867 27.3332 7.33337 27.7866 7.33337 28.3332C7.33337 28.8799 7.7867 29.3332 8.33337 29.3332H24.3334C24.88 29.3332 25.3334 28.8799 25.3334 28.3332C25.3334 27.7866 24.88 27.3332 24.3334 27.3332H23V26.9999C23 25.5332 21.8 24.3332 20.3334 24.3332H17.3334V21.2799C17 21.3199 16.6667 21.3332 16.3334 21.3332C16 21.3332 15.6667 21.3199 15.3334 21.2799V24.3332Z" fill="white"/>
<path id="Vector_2" d="M24.9734 15.5201C25.8534 15.1867 26.6267 14.6401 27.24 14.0267C28.48 12.6534 29.2934 11.0134 29.2934 9.09341C29.2934 7.17341 27.7867 5.66675 25.8667 5.66675H25.12C24.2534 3.89341 22.44 2.66675 20.3334 2.66675H12.3334C10.2267 2.66675 8.41337 3.89341 7.5467 5.66675H6.80003C4.88003 5.66675 3.37337 7.17341 3.37337 9.09341C3.37337 11.0134 4.1867 12.6534 5.4267 14.0267C6.04003 14.6401 6.81337 15.1867 7.69337 15.5201C9.08003 18.9334 12.4134 21.3334 16.3334 21.3334C20.2534 21.3334 23.5867 18.9334 24.9734 15.5201ZM20.12 11.2667L19.2934 12.2801C19.16 12.4267 19.0667 12.7201 19.08 12.9201L19.16 14.2267C19.2134 15.0267 18.64 15.4401 17.8934 15.1467L16.68 14.6667C16.4934 14.6001 16.1734 14.6001 15.9867 14.6667L14.7734 15.1467C14.0267 15.4401 13.4534 15.0267 13.5067 14.2267L13.5867 12.9201C13.6 12.7201 13.5067 12.4267 13.3734 12.2801L12.5467 11.2667C12.0267 10.6534 12.2534 9.97341 13.0267 9.77341L14.2934 9.45341C14.4934 9.40008 14.7334 9.21341 14.84 9.04008L15.5467 7.94675C15.9867 7.26675 16.68 7.26675 17.12 7.94675L17.8267 9.04008C17.9334 9.21341 18.1734 9.40008 18.3734 9.45341L19.64 9.77341C20.4134 9.97341 20.64 10.6534 20.12 11.2667Z" fill="white"/>
</g>
</g>
</svg>
