<svg width="32" height="32" viewBox="0 0 32 32" fill="none" xmlns="http://www.w3.org/2000/svg">
<path d="M16.0004 18.6665C9.32037 18.6665 3.88037 23.1465 3.88037 28.6665C3.88037 29.0398 4.1737 29.3332 4.54704 29.3332H27.4537C27.827 29.3332 28.1204 29.0398 28.1204 28.6665C28.1204 23.1465 22.6804 18.6665 16.0004 18.6665Z" fill="white"/>
<path d="M20.9471 4.87984C19.7471 3.51984 17.9604 2.6665 16.0004 2.6665C14.1337 2.6665 12.4271 3.4265 11.2137 4.67984C10.0537 5.87984 9.33374 7.53317 9.33374 9.33317C9.33374 10.5865 9.68041 11.7598 10.3071 12.7598C10.6404 13.3332 11.0671 13.8532 11.5737 14.2798C12.7337 15.3465 14.2804 15.9998 16.0004 15.9998C18.4404 15.9998 20.5471 14.6932 21.7071 12.7598C22.0537 12.1865 22.3204 11.5465 22.4671 10.8798C22.6004 10.3865 22.6671 9.8665 22.6671 9.33317C22.6671 7.6265 22.0137 6.0665 20.9471 4.87984ZM18.4937 10.5598H13.5071C12.8137 10.5598 12.2537 9.99984 12.2537 9.3065C12.2537 8.61317 12.8137 8.05317 13.5071 8.05317H18.4937C19.1871 8.05317 19.7471 8.61317 19.7471 9.3065C19.7471 9.99984 19.1871 10.5598 18.4937 10.5598Z" fill="white"/>
</svg>
