<svg width="33" height="32" viewBox="0 0 33 32" fill="none" xmlns="http://www.w3.org/2000/svg">
<path d="M16.2499 18.6666C9.56988 18.6666 4.12988 23.1466 4.12988 28.6666C4.12988 29.04 4.42322 29.3333 4.79655 29.3333H27.7032C28.0765 29.3333 28.3699 29.04 28.3699 28.6666C28.3699 23.1466 22.9299 18.6666 16.2499 18.6666Z" fill="white"/>
<path d="M16.2499 2.66663C14.6766 2.66663 13.2366 3.21329 12.0899 4.13329C10.5566 5.34663 9.58325 7.22663 9.58325 9.33329C9.58325 10.5866 9.92992 11.76 10.5566 12.76C11.7033 14.6933 13.8099 16 16.2499 16C17.9299 16 19.4633 15.3866 20.6366 14.3333C21.1566 13.8933 21.6099 13.36 21.9566 12.76C22.5699 11.76 22.9166 10.5866 22.9166 9.33329C22.9166 5.65329 19.9299 2.66663 16.2499 2.66663ZM19.7033 8.61329L16.1433 11.8933C15.9033 12.12 15.5966 12.2266 15.2899 12.2266C14.9699 12.2266 14.6499 12.1066 14.4099 11.8666L12.7699 10.2133C12.2766 9.71996 12.2766 8.93329 12.7699 8.43996C13.2633 7.94663 14.0499 7.94663 14.5433 8.43996L15.3299 9.22663L18.0099 6.75996C18.5166 6.29329 19.3033 6.31996 19.7699 6.82663C20.2366 7.34663 20.2099 8.14663 19.7033 8.61329Z" fill="white"/>
</svg>
