<svg width="20" height="20" viewBox="0 0 20 20" fill="none" xmlns="http://www.w3.org/2000/svg">
<g id="vuesax/bold/user-octagon">
<g id="user-octagon">
<path id="Vector" d="M16.2583 4.87496L11.3083 2.01663C10.5 1.54996 9.5 1.54996 8.68333 2.01663L3.74167 4.87496C2.93333 5.34163 2.43333 6.20829 2.43333 7.14996V12.85C2.43333 13.7833 2.93333 14.65 3.74167 15.125L8.69167 17.9833C9.5 18.45 10.5 18.45 11.3167 17.9833L16.2667 15.125C17.075 14.6583 17.575 13.7916 17.575 12.85V7.14996C17.5667 6.20829 17.0667 5.34996 16.2583 4.87496ZM10 6.11663C11.075 6.11663 11.9417 6.98329 11.9417 8.05829C11.9417 9.13329 11.075 9.99996 10 9.99996C8.925 9.99996 8.05833 9.13329 8.05833 8.05829C8.05833 6.99163 8.925 6.11663 10 6.11663ZM12.2333 13.8833H7.76667C7.09167 13.8833 6.7 13.1333 7.075 12.575C7.64167 11.7333 8.74167 11.1666 10 11.1666C11.2583 11.1666 12.3583 11.7333 12.925 12.575C13.3 13.125 12.9 13.8833 12.2333 13.8833Z" fill="white"/>
</g>
</g>
</svg>
