<svg width="22" height="23" viewBox="0 0 22 23" fill="none" xmlns="http://www.w3.org/2000/svg">
<g id="vuesax/outline/cup">
<g id="cup">
<path id="Vector" d="M11.1375 18.2609C10.7616 18.2609 10.45 17.9493 10.45 17.5734V15.6484C10.45 15.2726 10.7616 14.9609 11.1375 14.9609C11.5133 14.9609 11.825 15.2726 11.825 15.6484V17.5734C11.825 17.9493 11.5133 18.2609 11.1375 18.2609Z" fill="#B0B3B8"/>
<path id="Vector_2" d="M16.4083 21.3776H5.86664V19.7734C5.86664 18.3801 6.99414 17.2526 8.38747 17.2526H13.8875C15.2808 17.2526 16.4083 18.3801 16.4083 19.7734V21.3776ZM7.24164 20.0026H15.0333V19.7734C15.0333 19.1409 14.52 18.6276 13.8875 18.6276H8.38747C7.75497 18.6276 7.24164 19.1409 7.24164 19.7734V20.0026Z" fill="#B0B3B8"/>
<path id="Vector_3" d="M16.6375 21.3776H5.63748C5.26165 21.3776 4.94998 21.0659 4.94998 20.6901C4.94998 20.3142 5.26165 20.0026 5.63748 20.0026H16.6375C17.0133 20.0026 17.325 20.3142 17.325 20.6901C17.325 21.0659 17.0133 21.3776 16.6375 21.3776Z" fill="#B0B3B8"/>
<path id="Vector_4" d="M16.8942 11.9267C16.7017 11.9267 16.5092 11.8442 16.3717 11.6884C16.1975 11.4867 16.1517 11.2026 16.2617 10.9642C16.5733 10.2492 16.7292 9.48841 16.7292 8.69091V5.94091C16.7292 5.62008 16.6742 5.30841 16.5642 4.97841C16.555 4.95091 16.5458 4.91424 16.5367 4.87758C16.5092 4.74008 16.5 4.60258 16.5 4.47424C16.5 4.09841 16.8117 3.78674 17.1875 3.78674H17.7375C19.3783 3.78674 20.7167 5.16174 20.7167 6.85758C20.7167 8.26008 20.1392 9.64424 19.14 10.6434C19.1217 10.6617 19.0667 10.7076 19.0575 10.7167C18.5167 11.1659 17.9025 11.6701 17.0775 11.8992C17.0133 11.9176 16.9583 11.9267 16.8942 11.9267ZM18.04 5.18924C18.0858 5.43674 18.1042 5.69341 18.1042 5.94091V8.69091C18.1042 9.06674 18.0767 9.42424 18.0217 9.79091C18.0767 9.74508 18.1225 9.70841 18.1775 9.66258C18.9108 8.92924 19.3417 7.90258 19.3417 6.85758C19.3417 6.03258 18.7825 5.33591 18.04 5.18924Z" fill="#B0B3B8"/>
<path id="Vector_5" d="M5.11499 11.8902C5.04166 11.8902 4.97749 11.881 4.90416 11.8535C4.15249 11.6152 3.44666 11.1752 2.85999 10.5885C1.80583 9.42432 1.28333 8.15015 1.28333 6.80265C1.28333 5.13432 2.59416 3.82349 4.26249 3.82349H4.85833C5.08749 3.82349 5.30749 3.94265 5.43582 4.13515C5.56416 4.32765 5.58249 4.57515 5.49082 4.78599C5.34416 5.11599 5.27082 5.49182 5.27082 5.88599V8.63599C5.27082 9.42432 5.42666 10.1943 5.74749 10.9277C5.85749 11.1752 5.80249 11.4593 5.62832 11.661C5.49082 11.8077 5.30749 11.8902 5.11499 11.8902ZM3.94166 5.22599C3.19916 5.37265 2.65833 6.01432 2.65833 6.80265C2.65833 7.80182 3.06166 8.76432 3.85916 9.64432C3.89583 9.69015 3.94166 9.72682 3.98749 9.76349C3.92332 9.38765 3.89582 9.01182 3.89582 8.63599V5.88599C3.89582 5.66599 3.91416 5.44599 3.94166 5.22599Z" fill="#B0B3B8"/>
<path id="Vector_6" d="M11 15.8776C7.08581 15.8776 3.89581 12.6876 3.89581 8.77348V6.02348C3.89581 3.62181 5.84831 1.66931 8.24998 1.66931H13.75C16.1516 1.66931 18.1041 3.62181 18.1041 6.02348V8.77348C18.1041 12.6876 14.9141 15.8776 11 15.8776ZM8.24998 3.04431C6.60915 3.04431 5.27081 4.38264 5.27081 6.02348V8.77348C5.27081 11.936 7.83748 14.5026 11 14.5026C14.1625 14.5026 16.7291 11.936 16.7291 8.77348V6.02348C16.7291 4.38264 15.3908 3.04431 13.75 3.04431H8.24998Z" fill="#B0B3B8"/>
</g>
</g>
</svg>
