<svg width="22" height="23" viewBox="0 0 22 23" fill="none" xmlns="http://www.w3.org/2000/svg">
<g id="vuesax/linear/note">
<g id="note">
<path id="Vector" d="M18.3333 8.08598V17.0235C18.3333 19.7735 16.6925 20.6901 14.6667 20.6901H7.33332C5.30749 20.6901 3.66666 19.7735 3.66666 17.0235V8.08598C3.66666 5.10681 5.30749 4.41931 7.33332 4.41931C7.33332 4.98764 7.56247 5.50097 7.9383 5.87681C8.31413 6.25264 8.82749 6.48181 9.39582 6.48181H12.6042C13.7408 6.48181 14.6667 5.55598 14.6667 4.41931C16.6925 4.41931 18.3333 5.10681 18.3333 8.08598Z" stroke="#B0B3B8" stroke-width="1.375" stroke-linecap="round" stroke-linejoin="round"/>
<path id="Vector_2" d="M14.6667 4.41931C14.6667 5.55598 13.7408 6.48181 12.6042 6.48181H9.39584C8.82751 6.48181 8.31415 6.25264 7.93832 5.87681C7.56249 5.50097 7.33334 4.98764 7.33334 4.41931C7.33334 3.28264 8.25918 2.35681 9.39584 2.35681H12.6042C13.1725 2.35681 13.6859 2.58598 14.0617 2.96181C14.4375 3.33765 14.6667 3.85098 14.6667 4.41931Z" stroke="#B0B3B8" stroke-width="1.375" stroke-linecap="round" stroke-linejoin="round"/>
<path id="Vector_3" d="M7.33334 12.4401H11" stroke="#B0B3B8" stroke-width="1.375" stroke-linecap="round" stroke-linejoin="round"/>
<path id="Vector_4" d="M7.33334 16.1068H14.6667" stroke="#B0B3B8" stroke-width="1.375" stroke-linecap="round" stroke-linejoin="round"/>
</g>
</g>
</svg>
