<svg width="22" height="23" viewBox="0 0 22 23" fill="none" xmlns="http://www.w3.org/2000/svg">
<g id="vuesax/outline/keyboard-open">
<g id="keyboard-open">
<path id="Vector" d="M15.3448 18.481H6.66396C5.93979 18.481 5.41729 18.4535 4.96812 18.3893C1.78729 18.041 1.15479 16.1343 1.15479 12.9718V7.17849C1.15479 4.01599 1.77813 2.10929 4.98646 1.76096C5.42646 1.69679 5.94896 1.66931 6.66396 1.66931H15.3448C16.0598 1.66931 16.5823 1.69679 17.0406 1.76096C20.2306 2.10929 20.854 4.01599 20.854 7.17849V12.9718C20.854 16.1343 20.2306 18.041 17.0223 18.3893C16.5915 18.4535 16.069 18.481 15.3448 18.481ZM6.65479 3.04431C6.00395 3.04431 5.53645 3.07184 5.15145 3.12684C3.17145 3.34684 2.52062 3.961 2.52062 7.18766V12.981C2.52062 16.1985 3.17146 16.8218 5.13313 17.0327C5.53646 17.0877 6.00396 17.1151 6.66396 17.1151H15.3448C16.0048 17.1151 16.4631 17.0877 16.8481 17.0327C18.8281 16.8127 19.479 16.1985 19.479 12.9718V7.17849C19.479 3.96099 18.8281 3.33767 16.8665 3.12684C16.454 3.07184 15.9956 3.04431 15.3356 3.04431H6.65479Z" fill="#B0B3B8"/>
<path id="Vector_2" d="M15.8217 8.83765H12.4484C12.0726 8.83765 11.7609 8.52598 11.7609 8.15015C11.7609 7.77431 12.0726 7.46265 12.4484 7.46265H15.8217C16.1976 7.46265 16.5092 7.77431 16.5092 8.15015C16.5092 8.52598 16.2067 8.83765 15.8217 8.83765Z" fill="#B0B3B8"/>
<path id="Vector_3" d="M9.16667 9.06685C8.6625 9.06685 8.25 8.65435 8.25 8.15019C8.25 7.64602 8.65333 7.23352 9.16667 7.23352C9.67083 7.23352 10.0833 7.64602 10.0833 8.15019C10.0833 8.65435 9.68 9.06685 9.16667 9.06685Z" fill="#B0B3B8"/>
<path id="Vector_4" d="M6.27925 9.06685C5.77508 9.06685 5.36258 8.65435 5.36258 8.15019C5.36258 7.64602 5.76591 7.23352 6.27925 7.23352H6.28841C6.79257 7.23352 7.20507 7.64602 7.20507 8.15019C7.20507 8.65435 6.78341 9.06685 6.27925 9.06685Z" fill="#B0B3B8"/>
<path id="Vector_5" d="M15.8219 14.1451H6.18769C5.81186 14.1451 5.49103 13.8335 5.49103 13.4576C5.49103 13.0818 5.79352 12.7701 6.16935 12.7701H15.8219C16.1977 12.7701 16.5094 13.0818 16.5094 13.4576C16.5094 13.8335 16.2069 14.1451 15.8219 14.1451Z" fill="#B0B3B8"/>
<path id="Vector_6" d="M15.5833 21.3776H6.41666C6.04082 21.3776 5.72916 21.0659 5.72916 20.6901C5.72916 20.3142 6.04082 20.0026 6.41666 20.0026H15.5833C15.9592 20.0026 16.2708 20.3142 16.2708 20.6901C16.2708 21.0659 15.9592 21.3776 15.5833 21.3776Z" fill="#B0B3B8"/>
</g>
</g>
</svg>
