<svg width="24" height="25" viewBox="0 0 24 25" fill="none" xmlns="http://www.w3.org/2000/svg">
<g id="ant-design:team-outlined">
<path id="Vector" d="M19.3172 16.9274C18.7305 16.3403 18.0451 15.8611 17.2922 15.5118C18.3539 14.6516 19.0312 13.3391 19.0312 11.8672C19.0312 9.27037 16.8656 7.13991 14.2687 7.17975C11.7117 7.21959 9.65156 9.30319 9.65156 11.8672C9.65156 13.3391 10.3312 14.6516 11.3906 15.5118C10.6376 15.8609 9.95209 16.3401 9.36562 16.9274C8.08594 18.2094 7.35937 19.9016 7.3125 21.7063C7.31187 21.7313 7.31626 21.7562 7.3254 21.7795C7.33455 21.8028 7.34826 21.824 7.36573 21.8419C7.3832 21.8598 7.40409 21.8741 7.42715 21.8838C7.45021 21.8935 7.47498 21.8985 7.5 21.8985H8.8125C8.91328 21.8985 8.99765 21.8188 9 21.718C9.04453 20.3587 9.59531 19.086 10.5633 18.1204C11.0586 17.6224 11.6478 17.2276 12.2967 16.9589C12.9456 16.6902 13.6414 16.5528 14.3437 16.5547C15.7711 16.5547 17.1141 17.1102 18.1242 18.1204C19.0898 19.086 19.6406 20.3587 19.6875 21.718C19.6898 21.8188 19.7742 21.8985 19.875 21.8985H21.1875C21.2125 21.8985 21.2373 21.8935 21.2604 21.8838C21.2834 21.8741 21.3043 21.8598 21.3218 21.8419C21.3392 21.824 21.353 21.8028 21.3621 21.7795C21.3712 21.7562 21.3756 21.7313 21.375 21.7063C21.3281 19.9016 20.6016 18.2094 19.3172 16.9274ZM14.3437 14.8672C13.5422 14.8672 12.7875 14.5555 12.2227 13.9883C11.9392 13.7071 11.7153 13.3717 11.5643 13.002C11.4133 12.6323 11.3383 12.2361 11.3437 11.8368C11.3508 11.068 11.6578 10.3251 12.1945 9.77428C12.757 9.19772 13.5094 8.87662 14.3133 8.86725C15.1078 8.86022 15.8789 9.16959 16.4461 9.72506C17.0273 10.2946 17.3461 11.0563 17.3461 11.8672C17.3461 12.6688 17.0344 13.4212 16.4672 13.9883C16.1889 14.2679 15.858 14.4896 15.4935 14.6404C15.129 14.7913 14.7382 14.8684 14.3437 14.8672ZM8.47265 12.486C8.45156 12.2821 8.43984 12.0758 8.43984 11.8672C8.43984 11.4946 8.475 11.1313 8.54062 10.7774C8.55703 10.693 8.5125 10.6063 8.43515 10.5712C8.1164 10.4282 7.82344 10.2313 7.57031 9.98287C7.27204 9.69367 7.03734 9.34547 6.88117 8.96049C6.72499 8.57551 6.65079 8.1622 6.66328 7.74694C6.68437 6.99459 6.98672 6.27975 7.51406 5.74069C8.09297 5.14772 8.87109 4.82428 9.69844 4.83366C10.4461 4.84069 11.168 5.12897 11.7141 5.63991C11.8992 5.81334 12.0586 6.00553 12.1922 6.21178C12.2391 6.28444 12.3305 6.31491 12.4102 6.28678C12.8227 6.14381 13.2586 6.04303 13.7062 5.99616C13.8375 5.98209 13.9125 5.84147 13.8539 5.72428C13.0922 4.21725 11.5359 3.17662 9.73594 3.1485C7.13672 3.10866 4.97109 5.23912 4.97109 7.83366C4.97109 9.30553 5.64844 10.618 6.71015 11.4782C5.96484 11.8227 5.27812 12.2985 4.68281 12.8938C3.39844 14.1758 2.67187 15.868 2.625 17.6751C2.62437 17.7001 2.62876 17.725 2.6379 17.7483C2.64704 17.7715 2.66076 17.7928 2.67823 17.8107C2.6957 17.8286 2.71659 17.8428 2.73965 17.8525C2.7627 17.8623 2.78748 17.8673 2.8125 17.8672H4.12734C4.22812 17.8672 4.3125 17.7876 4.31484 17.6868C4.35937 16.3274 4.91015 15.0547 5.87812 14.0891C6.56719 13.4001 7.41094 12.9219 8.33203 12.6899C8.42344 12.6665 8.48437 12.5797 8.47265 12.486Z" fill="#B0B3B8"/>
</g>
</svg>
