<svg width="16" height="17" viewBox="0 0 16 17" fill="none" xmlns="http://www.w3.org/2000/svg">
<path d="M12.7133 13.7136C12.5867 13.7136 12.46 13.6669 12.36 13.5669C12.1667 13.3736 12.1667 13.0536 12.36 12.8602C14.7667 10.4536 14.7667 6.54024 12.36 4.14024C12.1667 3.94691 12.1667 3.62691 12.36 3.43357C12.5533 3.24024 12.8733 3.24024 13.0667 3.43357C15.86 6.22691 15.86 10.7736 13.0667 13.5669C12.9667 13.6669 12.84 13.7136 12.7133 13.7136Z" fill="#BCBF05"/>
<path d="M3.28668 13.7136C3.16001 13.7136 3.03335 13.6669 2.93335 13.5669C0.140015 10.7736 0.140015 6.22691 2.93335 3.43357C3.12668 3.24024 3.44668 3.24024 3.64002 3.43357C3.83335 3.62691 3.83335 3.94691 3.64002 4.14024C1.23335 6.54691 1.23335 10.4602 3.64002 12.8602C3.83335 13.0536 3.83335 13.3736 3.64002 13.5669C3.54001 13.6669 3.41335 13.7136 3.28668 13.7136Z" fill="#BCBF05"/>
<path d="M8 15.6398C7.16667 15.6331 6.37334 15.4998 5.63334 15.2398C5.37334 15.1465 5.23334 14.8598 5.32667 14.5998C5.42 14.3398 5.7 14.1998 5.96667 14.2931C6.60667 14.5131 7.28667 14.6331 8.00667 14.6331C8.72 14.6331 9.40667 14.5131 10.04 14.2931C10.3 14.2065 10.5867 14.3398 10.68 14.5998C10.7733 14.8598 10.6333 15.1465 10.3733 15.2398C9.62667 15.4998 8.83334 15.6398 8 15.6398Z" fill="#BCBF05"/>
<path d="M10.2 2.72653C10.1467 2.72653 10.0867 2.71986 10.0333 2.69986C9.4 2.4732 8.71334 2.35986 8 2.35986C7.28667 2.35986 6.60667 2.47986 5.96667 2.69986C5.7 2.78653 5.42 2.6532 5.32667 2.3932C5.23334 2.1332 5.37334 1.84653 5.63334 1.7532C6.38 1.4932 7.17334 1.35986 8 1.35986C8.82667 1.35986 9.62667 1.4932 10.3667 1.7532C10.6267 1.84653 10.7667 2.1332 10.6733 2.3932C10.6 2.59986 10.4067 2.72653 10.2 2.72653Z" fill="#BCBF05"/>
<path d="M5.82667 8.49993V7.3866C5.82667 5.99993 6.80667 5.43327 8.00667 6.1266L8.97333 6.6866L9.94 7.2466C11.14 7.93993 11.14 9.07327 9.94 9.7666L8.97333 10.3266L8.00667 10.8866C6.80667 11.5799 5.82667 11.0133 5.82667 9.6266V8.49993Z" fill="#BCBF05"/>
</svg>
